# xmcd
#
# Track frame offsets:
#	150
#	12031
#	27927
#	40490
#	56009
#	70952
#	86346
#	104114
#	116747
#	130678
#
# Disc length: 1921 seconds
#
# Revision: 0
# Processed by: cddbd v1.5.2PL0 Copyright (c) Steve Scherf et al.
# Submitted via: EasyCDDAExtractor 16.0.6.1
#
DISCID=85077f0a
DTITLE=Συλλογικός δίσκος - Λαϊκό τραγούδι 1954-1967, 1962-1
DYEAR=2008
DGENRE=Λαϊκή
TTITLE0=Μπιθικώτσης Γρηγόρης-Γκίκα Βούλα - Καρδιά μου μην παραπονιέσαι [Γρηγ. 
TTITLE0=Μπιθικώτσης-Άκης Πάνου]
TTITLE1=Καζαντζίδης Στέλιος-Μαρινέλλα - Τι κρύβω μέσα στην καρδιά [Στέλιος Καζ
TTITLE1=αντζίδης]
TTITLE2=Ζαγοραίος Σπύρος-Ζαγοραίου Ζωή - Μην κοιτάζεις άλλα μάτια [Γιώργος Μητ
TTITLE2=σάκης]
TTITLE3=Αγγελόπουλος Μανώλης - Το τραγούδι του τσιγγάνου [Γιάννης Καραμπεσίνης
TTITLE3=]
TTITLE4=Πάνου Πόλυ-Καραμπεσίνης Γιάννης - Εσένα δεν σού άξιζε αγάπη [Γιάννης Κ
TTITLE4=αραμπεσίνης-Νίκος Μουρκάκος]
TTITLE5=Καζαντζίδης Στέλιος - Με δέρνουν χίλιοι πόνοι [Απόστολος Καλδάρας]
TTITLE6=Γκρέϋ Καίτη - Μ' έχουν γελάσει δυό μαύρα μάτια [Βασίλης Τσιτσάνης]
TTITLE7=Περπινιάδης Βαγγέλης-Καλάκη Ρούλα - Ούτε τα λεφτά σου, ούτε τα καλά σο
TTITLE7=υ [Μπ. Μπακάλης-Κώστας Βίρβος]
TTITLE8=Αναγνωστάκης Πέτρος-Καλάκη Ρούλα - Κάποιο τραίνο [Γιώργος Μανίσαλης-Κώ
TTITLE8=στας Βίρβος]
TTITLE9=Νομικός Νίκος - Ο Νικολάκης το τζιτζίκι [Απόστολος Καλδάρας]
EXTD=
EXTT0=
EXTT1=
EXTT2=
EXTT3=
EXTT4=
EXTT5=
EXTT6=
EXTT7=
EXTT8=
EXTT9=
PLAYORDER=
